# xmcd
#
# Track frame offsets:
#	150
#	24044
#	44955
#	68874
#
# Disc length: 1132 seconds
#
# Revision: 1
# Processed by: cddbd v1.5PL3 Copyright (c) Steve Scherf et al.
# Submitted via: CDex 1.50Beta5
#
DISCID=30046a04
DTITLE=RIZE - VIBRATION introducing Def Tech
DYEAR=2003
DGENRE=Rock
TTITLE0=VIBRATION
TTITLE1=VIBRATION AIR JORNAN 1 REMIX
TTITLE2=VIBRATION instrumental
TTITLE3=RESPECT(爆雷02 港南BAY LIVE MIX)
EXTD=
EXTT0=
EXTT1=
EXTT2=
EXTT3=
PLAYORDER=
